<?xml version="1.0" encoding="UTF-8"?>
<svg id="Layer_1" xmlns="http://www.w3.org/2000/svg" version="1.1" viewBox="0 0 800 800">
  <!-- Generator: Adobe Illustrator 30.1.0, SVG Export Plug-In . SVG Version: 2.1.1 Build 136)  -->
  <path d="M0,100.9v598.2c0,56.5,44.4,100.9,100.9,100.9h598.2c27.6,0,54-13.2,70.9-30,18-18,30-40.9,30-70.9V100.9c0-56.5-44.4-100.9-100.9-100.9H100.9c-30,0-52.9,12-70.9,30C13.2,46.9,0,73.3,0,100.9ZM108.1,180.2c0-38.4,31.2-72.1,69.7-72.1s72.1,33.6,72.1,72.1-32.4,70.9-72.1,70.9-69.7-31.2-69.7-70.9ZM301.5,673.8v-366.3c0-8.4,8.4-15.6,14.4-15.6h102.1c14.4,0,14.4,16.8,14.4,27.6,28.8-28.8,66.1-36.1,104.5-36.1,93.7,0,153.8,44.4,153.8,142.9v247.5c0,8.4-7.2,15.6-14.4,15.6h-105.7c-8.4,0-14.4-8.4-14.4-15.6v-223.4c0-37.2-10.8-57.7-52.9-57.7s-66.1,34.8-66.1,81.7v199.4c0,8.4-8.4,15.6-16.8,15.6h-104.5c-6,0-14.4-8.4-14.4-15.6h0ZM110.5,673.8v-366.3c0-8.4,8.4-15.6,14.4-15.6h104.5c9.6,0,15.6,6,15.6,15.6v366.3c0,8.4-7.2,15.6-15.6,15.6h-104.5c-7.2,0-14.4-8.4-14.4-15.6Z"/>
</svg>