<?xml version="1.0" encoding="UTF-8"?>
<svg id="Layer_1" xmlns="http://www.w3.org/2000/svg" version="1.1" viewBox="0 0 800 800">
  <!-- Generator: Adobe Illustrator 30.1.0, SVG Export Plug-In . SVG Version: 2.1.1 Build 136)  -->
  <g id="Email">
    <path d="M699.7,799.9H100c-26.8.9-52.7-9.5-71.4-28.6C9.7,752.8-.7,727.1,0,700.5V100c-.9-26.8,9.5-52.7,28.6-71.4C47.4,9.5,73.3-.8,100,0h599.9c26.8-.9,52.7,9.5,71.4,28.6,19.1,18.8,29.5,44.7,28.6,71.4v599.9c-.3,55.2-45.1,99.8-100.3,100ZM624.8,602.8c5.9,0,11.5-2,16.3-5.4,12.1-5.8,19.9-18,20-31.4V226.6c.2-5.3-1.2-10.6-4-15.1-6.1-12.4-18.5-20.5-32.3-21.1H169.5c-3,.3-6,1.3-8.6,2.9-14.1,4.7-23.9,17.7-24.6,32.6v340.2c0,5.6,1.7,11.1,4.9,15.7,5.8,12.5,18.2,20.7,32,21.1h451.7ZM586,526.8H211.7v-212.5l188.3,148.8,186-148.8v212.5ZM400,366c-82.6-65.1-124.8-98.8-126.8-100.6h252.5l-125.7,100.6Z"/>
  </g>
</svg>